<svg width="100px" height="100px" viewBox="-1.25 -0.625 129.25 129.25" xmlns="http://www.w3.org/2000/svg" xmlns:xlink="http://www.w3.org/1999/xlink" version="1.1"><path fill="#000000" d="M62.375 28.5q-2.625 0 -4.5 1.875l-9.125 9.125 11.5 11.5q2.125 -0.75 4.25 -0.25t3.688 2.063 2 3.688 -0.188 4.25l11 11q2.125 -0.625 4.25 -0.188t3.75 2.063q2.25 2.25 2.25 5.438t-2.25 5.375 -5.438 2.188 -5.438 -2.125q-1.625 -1.75 -2.063 -4t0.438 -4.375l-10.375 -10.375v27.25q1.125 0.5 2 1.375 2.25 2.25 2.25 5.438T68.125 105.25t-5.438 2.25 -5.375 -2.25 -2.188 -5.438 2.25 -5.438q1 -1 2.5 -1.625V65.25q-1.5 -0.5 -2.5 -1.625 -1.75 -1.625 -2.188 -3.938T55.625 55.25l-11.25 -11.375 -30 30q-1.875 1.875 -1.875 4.563t1.875 4.563l43.625 43.625q1.875 1.875 4.563 1.875t4.563 -1.875l43.5 -43.5q1.875 -1.875 1.875 -4.563T110.625 74L67 30.375q-1.875 -1.875 -4.625 -1.875"/></svg>
