<svg width="100px" height="100px" viewBox="0 0 3 3" xmlns="http://www.w3.org/2000/svg" fill="#000000"><path d="M1.5 0a1.5 1.5 0 1 0 0 3 1.5 1.5 0 0 0 0 -3m0.395 2.723h-0.012a0.064 0.064 0 0 1 -0.048 -0.018 0.064 0.064 0 0 1 -0.018 -0.046v-0.176q0.001 -0.088 0.001 -0.177a0.463 0.463 0 0 0 -0.019 -0.129 0.229 0.229 0 0 0 -0.068 -0.109 1 1 0 0 0 0.255 -0.059 0.506 0.506 0 0 0 0.183 -0.12c0.051 -0.053 0.089 -0.118 0.111 -0.188a0.85 0.85 0 0 0 0.037 -0.266 0.512 0.512 0 0 0 -0.033 -0.184 0.487 0.487 0 0 0 -0.099 -0.161 0.35 0.35 0 0 0 0.02 -0.073q0.006 -0.037 0.006 -0.075 0 -0.049 -0.011 -0.097a0.625 0.625 0 0 0 -0.028 -0.095 0.037 0.037 0 0 0 -0.014 -0.003h-0.014q-0.043 0.001 -0.084 0.014a0.625 0.625 0 0 0 -0.088 0.033 0.875 0.875 0 0 0 -0.083 0.043q-0.04 0.024 -0.072 0.045a1.2 1.2 0 0 0 -0.643 0 1.75 1.75 0 0 0 -0.071 -0.045 0.75 0.75 0 0 0 -0.084 -0.043 0.563 0.563 0 0 0 -0.088 -0.033 0.275 0.275 0 0 0 -0.083 -0.014h-0.014a0.037 0.037 0 0 0 -0.014 0.003 0.75 0.75 0 0 0 -0.029 0.095q-0.01 0.048 -0.01 0.097 0 0.038 0.006 0.075t0.02 0.073A0.487 0.487 0 0 0 0.713 1.25a0.512 0.512 0 0 0 -0.033 0.184 0.863 0.863 0 0 0 0.036 0.265c0.023 0.07 0.06 0.135 0.111 0.19 0.052 0.053 0.114 0.094 0.183 0.12 0.082 0.031 0.167 0.051 0.254 0.059a0.225 0.225 0 0 0 -0.057 0.079 0.375 0.375 0 0 0 -0.025 0.093 0.344 0.344 0 0 1 -0.147 0.034 0.225 0.225 0 0 1 -0.133 -0.037 0.362 0.362 0 0 1 -0.094 -0.103 0.375 0.375 0 0 0 -0.036 -0.048 0.338 0.338 0 0 0 -0.046 -0.043 0.225 0.225 0 0 0 -0.054 -0.03 0.15 0.15 0 0 0 -0.06 -0.013q-0.007 0 -0.015 0.001a0.087 0.087 0 0 0 -0.02 0.003 0.05 0.05 0 0 0 -0.016 0.007 0.015 0.015 0 0 0 -0.007 0.013 0.041 0.041 0 0 0 0.018 0.03q0.018 0.014 0.029 0.021l0.004 0.003q0.025 0.019 0.048 0.042 0.021 0.018 0.037 0.041 0.017 0.022 0.029 0.048 0.014 0.025 0.029 0.058c0.024 0.059 0.065 0.109 0.119 0.143 0.057 0.03 0.12 0.045 0.184 0.044q0.033 0 0.065 -0.004 0.032 -0.005 0.064 -0.011v0.218a0.063 0.063 0 0 1 -0.067 0.065h-0.008a1.286 1.286 0 1 1 0.79 0z"/></svg>
