<svg width="100px" height="100px" viewBox="0 0 4 4" id="Camada_1" version="1.1" xml:space="preserve" xmlns="http://www.w3.org/2000/svg" xmlns:xlink="http://www.w3.org/1999/xlink"><style type="text/css">.st0{fill:#FFFFFF;}</style><path d="M0.75 0.25h2.5c0.275 0 0.5 0.225 0.5 0.5v2.5c0 0.275 -0.225 0.5 -0.5 0.5H0.75c-0.275 0 -0.5 -0.225 -0.5 -0.5V0.75c0 -0.275 0.225 -0.5 0.5 -0.5"/><g><path class="st0" d="M3.438 2c0 -0.2 -0.237 -0.362 -0.588 -0.475 0.087 -0.362 0.05 -0.65 -0.113 -0.738 -0.05 -0.025 -0.087 -0.037 -0.138 -0.037 -0.163 0 -0.362 0.113 -0.563 0.313C1.825 0.863 1.625 0.75 1.462 0.75c-0.05 0 -0.1 0.013 -0.138 0.037 -0.163 0.087 -0.2 0.375 -0.113 0.738C0.863 1.637 0.625 1.8 0.625 2s0.237 0.362 0.588 0.475c-0.087 0.362 -0.063 0.65 0.113 0.75 0.037 0.025 0.087 0.037 0.138 0.037 0.163 0 0.362 -0.113 0.563 -0.313 0.2 0.2 0.412 0.313 0.563 0.313 0.05 0 0.1 -0.013 0.138 -0.037 0.163 -0.1 0.2 -0.388 0.113 -0.75 0.362 -0.113 0.6 -0.287 0.6 -0.475m-0.838 -1.113c0.025 0 0.05 0 0.063 0.013 0.075 0.05 0.113 0.212 0.087 0.425 -0.013 0.05 -0.013 0.113 -0.025 0.163 -0.113 -0.025 -0.237 -0.05 -0.362 -0.063 -0.075 -0.1 -0.15 -0.2 -0.225 -0.275 0.175 -0.175 0.35 -0.263 0.463 -0.263m-0.188 1.337c-0.037 0.075 -0.087 0.138 -0.125 0.212 -0.087 0 -0.163 0.013 -0.25 0.013s-0.175 0 -0.25 -0.013c-0.05 -0.063 -0.087 -0.138 -0.125 -0.212l-0.113 -0.225 0.113 -0.225c0.037 -0.075 0.087 -0.15 0.138 -0.212 0.075 0 0.163 -0.013 0.25 -0.013s0.163 0 0.25 0.013c0.05 0.063 0.087 0.138 0.138 0.212l0.113 0.225c-0.05 0.075 -0.1 0.15 -0.138 0.225m0.188 -0.063c0.025 0.075 0.05 0.138 0.075 0.212l-0.225 0.037c0.025 -0.037 0.05 -0.075 0.075 -0.125 0.025 -0.037 0.05 -0.087 0.075 -0.125M2.025 2.75c-0.05 -0.05 -0.1 -0.113 -0.15 -0.175h0.3c-0.05 0.063 -0.1 0.125 -0.15 0.175m-0.425 -0.338L1.375 2.375c0.025 -0.075 0.05 -0.138 0.075 -0.212 0.025 0.037 0.05 0.087 0.075 0.125 0.025 0.05 0.05 0.087 0.075 0.125m-0.138 -0.575c-0.025 -0.075 -0.05 -0.15 -0.075 -0.212l0.225 -0.037c-0.025 0.037 -0.05 0.087 -0.075 0.125 -0.037 0.037 -0.063 0.087 -0.075 0.125m0.563 -0.588c0.05 0.05 0.1 0.113 0.15 0.175H1.875c0.05 -0.063 0.1 -0.125 0.15 -0.175m0.5 0.463c-0.025 -0.05 -0.05 -0.087 -0.075 -0.125l0.225 0.037c-0.025 0.075 -0.05 0.15 -0.075 0.212 -0.025 -0.037 -0.05 -0.087 -0.075 -0.125m-1.212 -0.388c-0.025 -0.212 0 -0.375 0.087 -0.425 0.013 -0.013 0.037 -0.013 0.063 -0.013 0.113 0 0.287 0.087 0.475 0.275 -0.075 0.087 -0.15 0.175 -0.225 0.275 -0.125 0.013 -0.25 0.037 -0.362 0.063 -0.025 -0.063 -0.037 -0.125 -0.037 -0.175m-0.225 0.95c-0.2 -0.087 -0.325 -0.188 -0.325 -0.287 0 -0.087 0.125 -0.2 0.325 -0.287 0.05 -0.025 0.1 -0.037 0.163 -0.05 0.037 0.113 0.075 0.225 0.125 0.338 -0.05 0.113 -0.1 0.225 -0.125 0.338 -0.063 0 -0.113 -0.025 -0.163 -0.05m0.313 0.825c-0.075 -0.05 -0.113 -0.212 -0.087 -0.425 0.013 -0.05 0.013 -0.113 0.037 -0.175 0.113 0.025 0.225 0.05 0.35 0.063 0.075 0.1 0.15 0.2 0.237 0.287 -0.188 0.175 -0.362 0.275 -0.475 0.275 -0.025 -0.013 -0.05 -0.013 -0.063 -0.025M2.75 2.675c0.025 0.212 0 0.375 -0.087 0.425 -0.013 0.013 -0.037 0.013 -0.063 0.013 -0.113 0 -0.287 -0.087 -0.475 -0.275 0.075 -0.087 0.163 -0.175 0.237 -0.287 0.125 -0.013 0.25 -0.025 0.35 -0.063q0.019 0.113 0.037 0.188m0.225 -0.4c-0.05 0.025 -0.1 0.037 -0.163 0.063 -0.037 -0.113 -0.075 -0.225 -0.125 -0.338 0.05 -0.113 0.1 -0.237 0.125 -0.338 0.063 0.013 0.113 0.037 0.163 0.05 0.2 0.087 0.325 0.188 0.325 0.287 0 0.087 -0.125 0.2 -0.325 0.275"/><path class="st0" d="M2.038 2.263c0.15 0 0.263 -0.113 0.263 -0.263s-0.113 -0.263 -0.263 -0.263 -0.263 0.113 -0.263 0.263 0.113 0.263 0.263 0.263"/></g></svg>
