<svg width="100" height="100" viewBox="0 0 0.563 0.563" fill="none" xmlns="http://www.w3.org/2000/svg"><path fill-rule="evenodd" clip-rule="evenodd" d="M0 0h0.563v0.563H0zm0.375 0.225a0.075 0.075 0 1 0 0 0.15h0.037a0.037 0.037 0 1 1 0 0.075h-0.037a0.037 0.037 0 0 1 -0.037 -0.037H0.3a0.075 0.075 0 0 0 0.075 0.075h0.037a0.075 0.075 0 1 0 0 -0.15h-0.037a0.037 0.037 0 0 1 0 -0.075h0.044c0.017 0 0.031 0.014 0.031 0.031V0.3h0.037v-0.006C0.487 0.256 0.457 0.225 0.419 0.225zM0.112 0.225h0.188v0.037H0.225v0.225H0.188V0.263H0.112z" fill="#000000"/></svg>
